<svg width="19" height="25" viewBox="0 0 19 25" fill="none" xmlns="http://www.w3.org/2000/svg">
<path d="M18.4492 25H0.551518C0.44773 25 0.348488 24.9576 0.277275 24.8826C0.206063 24.8076 0.168184 24.7068 0.17273 24.603L1.025 6.7053C1.03485 6.50303 1.20076 6.3447 1.40379 6.3447H17.597C17.7992 6.3447 17.9659 6.50303 17.9758 6.7053L18.828 24.603C18.8326 24.7068 18.7955 24.8076 18.7235 24.8826C18.6515 24.9576 18.5523 25 18.4492 25ZM0.948487 24.2424H18.0515L17.2356 7.10227H1.7644L0.948487 24.2424Z" fill="black"/>
<path d="M13.5947 8.61742C13.3856 8.61742 13.2159 8.44773 13.2159 8.23864V4.47348C13.2159 2.425 11.5492 0.757576 9.49997 0.757576C7.45073 0.757576 5.78407 2.425 5.78407 4.47348V8.23864C5.78407 8.44773 5.61437 8.61742 5.40528 8.61742C5.19619 8.61742 5.02649 8.44773 5.02649 8.23864V4.47348C5.02649 2.00682 7.03331 0 9.49997 0C11.9666 0 13.9735 2.00682 13.9735 4.47348V8.23864C13.9735 8.44773 13.8045 8.61742 13.5947 8.61742Z" fill="black"/>
</svg>
