<svg width="1687" height="1162" viewBox="0 0 1687 1162" fill="rgba(0,0,0,0.2)" xmlns="http://www.w3.org/2000/svg">
<path d="M850.668 34.2667L830.668 68.6667L790.802 69.0668L750.935 69.4668L730.935 104L710.935 138.667L671.735 138.933L632.668 139.333L612.668 173.6L592.668 208L567.735 207.867C554.135 207.733 537.068 207.333 529.868 206.8L516.802 206L497.735 172.667L478.668 139.333L438.801 138.933L398.935 138.533L379.201 103.867L359.335 69.3335H318.535H277.601L257.602 104L237.601 138.533L197.735 138.933L157.735 139.333L137.335 174.4L116.935 209.467L137.335 245.067L157.735 280.667L197.601 281.067L237.601 281.467L253.602 309.6C262.401 325.067 271.068 340.4 272.801 343.467L276.001 349.2L257.602 380.933C247.468 398.4 238.401 413.6 237.335 414.667C235.735 416.4 230.001 416.533 197.868 416.133L160.268 415.733L140.135 450.267L120.135 484.667L80.2681 485.333L40.4015 486L20.0015 520.667C8.80147 539.733 -0.13186 556 0.0014733 556.8C0.134807 557.6 9.20147 574 20.2681 593.2L40.2681 628H79.8681H119.335L138.135 660.8C148.535 678.933 156.935 694.133 156.935 694.667C156.935 695.333 148.401 710.4 138.135 728.133C127.735 745.867 118.935 761.333 118.668 762.533C118.401 763.733 127.068 780.267 138.001 799.333L158.001 834L197.735 834.667L237.601 835.333L257.068 869.2L276.535 903.2L265.202 922.533C259.068 933.2 250.135 948.667 245.335 956.933L236.668 971.733L257.068 1007.2L277.468 1042.67H317.068H356.535L376.401 1077.33L396.135 1112H437.602H478.935L497.602 1079.73C507.868 1062 517.201 1046.4 518.268 1044.93C520.268 1042.53 521.868 1042.53 557.602 1043.6L594.802 1044.67L614.135 1078.4L633.335 1112H672.935H712.535L732.402 1146.67L752.135 1181.33H793.068H834.002L854.268 1146.67L874.535 1112H914.002H953.602L973.602 1077.33L993.602 1042.8L1031.07 1042.67H1068.53L1088.4 1077.33L1108.13 1112H1147.73H1187.47L1207.2 1146.67L1226.93 1181.33L1268.13 1181.07L1309.47 1180.67L1329.47 1146.27L1349.47 1112H1389.07H1428.53L1448.67 1077.33C1459.87 1058.27 1468.93 1041.87 1468.8 1041.07C1468.8 1040.13 1459.87 1024 1449.07 1005.33L1429.47 971.333L1414.13 970.533C1405.73 970 1387.73 969.6 1374.13 969.467L1349.33 969.333L1329.73 935.067C1315.33 910 1310.4 900.267 1311.2 898.533C1311.73 897.333 1320.4 882.533 1330.27 865.467L1348.27 834.667H1387.87H1427.33L1447.6 800L1467.87 765.333L1507.2 765.067L1546.67 764.667L1566.67 730.133L1586.8 695.6L1626 696.133L1665.33 696.667L1685.2 662.667C1696.13 644 1705.47 628 1705.73 627.2C1706.13 626.267 1697.33 609.6 1686.13 590.133L1665.87 554.667H1626.4H1586.93L1566.93 520L1546.93 485.333H1505.6L1464.27 485.467L1444.27 520L1424.27 554.667H1402.13C1390 554.667 1372.8 554.267 1363.87 553.733L1347.73 552.933L1328 518.533L1308.27 484H1268.67H1229.2L1210.27 451.067L1191.47 418L1193.87 413.867C1195.2 411.6 1203.73 396.8 1212.93 380.933L1229.6 352.133L1270.93 352H1312.27L1332.67 316.667L1353.07 281.467L1332.93 246.267L1312.67 210.933L1271.87 210C1234.8 209.067 1230.93 209.2 1229.47 211.2C1228.67 212.4 1219.6 227.867 1209.47 245.333L1190.93 277.333L1151.07 277.067L1111.2 276.667L1092.13 243.333C1081.6 224.933 1072.93 209.733 1072.93 209.333C1072.93 208.933 1081.87 193.333 1092.67 174.667L1112.53 140.8L1092.27 105.467L1072 70.0001L1032.13 69.6001L992.268 69.3335L972.535 34.6667L952.802 0.00012207H911.735H870.668L850.668 34.2667ZM968.802 36.8C979.068 54.8 987.602 70.2667 987.602 70.9335C987.602 72.2667 953.335 131.867 949.868 136.4C948.402 138.4 944.802 138.533 910.402 137.6L872.402 136.667L853.468 103.733L834.668 70.8L854.002 37.3335L873.335 4.00012H911.602H949.868L968.802 36.8ZM343.601 74.6667H357.601L372.535 101.067C380.801 115.467 389.335 130.4 391.468 134L395.335 140.667L375.735 174L356.268 207.333L318.801 207.733C284.401 208 281.201 207.867 279.335 205.733C275.335 201.067 242.135 141.333 242.535 139.467C242.801 138.533 251.335 123.2 261.602 105.333L280.268 73.0668L304.935 73.8668C318.535 74.2667 335.868 74.6667 343.601 74.6667ZM849.868 107.067L868.935 140.267L849.735 173.067L830.668 206H792.402H754.135L734.802 172.533L715.602 139.2L734.668 106.267L753.602 73.4668L792.268 73.7334L830.935 74.0001L849.868 107.067ZM1087.73 106.267C1098.13 124.533 1106.67 139.867 1106.67 140.667C1106.67 141.333 1098 156.8 1087.47 174.933L1068.4 207.867L1030.27 207.067C997.735 206.4 992.002 206 990.535 204.267C989.602 203.067 981.068 188.4 971.468 171.6C955.868 144.533 954.135 140.8 955.335 138C957.068 134.133 990.135 77.3335 992.002 74.9335C992.935 73.7334 1002.4 73.3335 1030.93 73.3335H1068.67L1087.73 106.267ZM256.535 176C266.935 194 275.201 209.467 274.801 210.533C274.401 211.6 266.001 226.8 255.868 244.133L237.601 275.867L198.935 276H160.268L141.068 242.667L122.001 209.333L132.268 191.733C138.001 182 146.801 166.933 151.868 158.267L161.068 142.667L199.335 142.933L237.601 143.333L256.535 176ZM494.668 176C510.801 204.267 512.935 208.667 511.735 211.2C510.801 212.8 501.868 228.133 491.868 245.333L473.468 276.667L436.535 276.933L399.601 277.2L396.401 272.267C391.735 265.067 360.935 210.933 360.935 209.867C360.935 209.2 368.668 195.733 392.668 154.8L400.001 142.267L438.001 142.933L476.135 143.6L494.668 176ZM731.202 176.8L750.402 210.267L731.335 243.067L712.268 276L673.602 275.6L635.068 275.333L616.002 242.133L597.068 208.8L599.468 204.8C601.868 200.933 616.802 175.333 630.135 152.267L635.735 142.667L673.868 142.933L712.002 143.333L731.202 176.8ZM968.268 175.467C978.535 193.467 986.935 208.933 986.935 210C986.935 210.933 978.535 226.267 968.268 243.867L949.602 276H911.335H873.202L854.268 243.067C843.202 223.733 835.735 209.067 836.002 207.733C836.402 206.533 844.935 191.333 854.935 174L873.202 142.667H911.468H949.602L968.268 175.467ZM374.268 243.467C384.135 260.8 392.801 276.133 393.468 277.467C394.401 279.333 390.401 287.2 375.601 312.667L356.535 345.333H317.735H278.801L260.401 312.933C250.135 295.2 241.868 280 241.868 279.333C241.868 278.533 250.401 263.067 261.068 244.933L280.268 212H318.268H356.268L374.268 243.467ZM612.535 245.333L631.468 278.533L612.135 312L592.668 345.333H555.068H517.602L498.535 312L479.468 278.8L491.735 257.733C498.401 246.133 507.201 231.067 511.201 224.267L518.401 212H556.002L593.602 212.133L612.535 245.333ZM850.002 246.133L869.068 279.733L850.002 312.533L830.935 345.333L792.402 344.933L753.868 344.667L735.335 312.267C725.202 294.4 716.935 279.067 717.202 278C717.468 277.067 726.002 261.867 736.268 244.133L754.935 212L792.935 212.267L830.802 212.667L850.002 246.133ZM1057.87 213.2L1070.27 214L1088.93 246.533L1107.6 278.933L1088 312.8L1068.27 346.667L1039.6 346.533C1023.87 346.4 1006.53 346 1001.33 345.467L991.602 344.667L972.802 312C956.668 283.867 954.268 279.067 955.468 276.4C957.068 272.8 990.135 216 992.002 213.6C993.335 211.867 1034.4 211.467 1057.87 213.2ZM1328.93 248.133L1348 281.467L1345.47 285.867C1344.13 288.267 1335.47 303.2 1326.27 319.067L1309.6 347.867L1270.93 348H1232.13L1213.07 314.533C1198.4 288.933 1194.27 280.533 1195.07 278.8C1195.73 277.467 1204.4 262.533 1214.27 245.467L1232.27 214.667H1271.07H1310L1328.93 248.133ZM441.602 282.667H475.335L494.135 315.733C504.401 333.867 512.935 349.333 512.935 349.867C512.935 350.533 504.401 365.733 494.135 383.6L475.335 416L437.201 415.733L399.068 415.333L379.868 381.733L360.668 348.133L372.935 327.067C402.801 276.133 399.468 280.933 403.868 281.867C406.135 282.267 423.068 282.667 441.602 282.667ZM731.335 314.8L750.402 348.267L742.268 362.533C737.735 370.267 729.068 385.2 723.068 395.6L712.268 414.533L674.268 414.667H636.268L617.335 381.333C606.802 363.067 598.268 347.333 598.268 346.533C598.268 345.867 602.535 338 607.602 329.2C612.802 320.533 621.202 306.133 626.268 297.333L635.735 281.333H674.002H712.268L731.335 314.8ZM968.935 314.667C983.735 340.667 987.735 348.667 986.802 350.533C986.135 351.867 977.468 366.8 967.602 383.867L949.602 414.667H911.602H873.468L854.402 381.333C844.002 362.933 835.602 347.467 835.868 346.8C836.135 346.133 844.668 331.2 854.935 313.467L873.602 281.333H911.735H950.002L968.935 314.667ZM1205.87 312.667C1215.6 329.467 1224.13 344.667 1225.07 346.133C1226.4 348.667 1224.27 352.933 1207.47 381.867L1188.27 414.667H1149.47H1110.53L1091.73 381.6L1072.93 348.4L1092.4 314.933L1112 281.333L1150.13 281.6L1188.27 282L1205.87 312.667ZM375.601 384C387.335 404.667 394.268 418.133 393.735 419.467C392.535 422.533 358.135 481.733 356.401 483.6C355.201 484.933 346.135 485.067 317.601 484.4L280.268 483.6L264.268 455.6C255.468 440.133 246.801 425.067 245.068 421.867L242.001 416.267L261.068 383.467L280.268 350.667H318.401H356.668L375.601 384ZM579.735 352H594.002L612.802 384.8C623.202 402.8 631.335 418 631.202 418.4C630.935 418.933 622.135 434.133 611.602 452.4L592.535 485.333L555.202 485.067L518.001 484.667L498.801 451.467C488.401 433.067 480.001 417.867 480.135 417.467C485.868 407.333 515.468 356.933 517.335 354.133L520.135 350.267L542.802 351.067C555.335 351.6 572.002 352 579.735 352ZM850.135 384.133C867.868 415.067 869.068 417.867 867.735 421.067C866.802 422.933 858.268 437.867 848.802 454.267L831.335 484H792.935H754.535L735.602 450.667C725.202 432.4 716.935 416.933 717.202 416.267C717.335 415.6 726.002 400.533 736.268 382.933L754.935 350.667H792.935H830.935L850.135 384.133ZM1086.27 381.6C1096.13 398.667 1104.67 413.6 1105.33 414.8C1106.27 416.267 1101.73 425.067 1087.2 450.133L1067.87 483.333L1030.13 483.733L992.268 484L973.602 451.2C963.335 433.2 954.935 417.733 954.935 416.933C954.935 416 963.335 400.8 973.602 383.067L992.268 350.8L1030.4 350.667H1068.53L1086.27 381.6ZM492.268 449.6C501.602 466 510.268 481.2 511.735 483.333L514.135 487.333L495.068 520L476.135 552.667H437.602H399.068L380.001 519.467L360.935 486.267L379.068 454.8C389.201 437.467 398.001 422.533 398.668 421.6C399.601 420.4 409.068 420 437.602 420H475.335L492.268 449.6ZM731.602 453.333L750.668 486.667L742.268 501.067C737.735 508.933 729.068 523.867 723.068 534.267L712.268 553.2H674.268H636.268L617.735 520.667C607.602 502.8 599.202 487.733 599.068 487.333C599.068 486.933 607.602 471.6 618.268 453.2L637.602 420H675.068H712.668L731.602 453.333ZM968.002 452C978.002 469.6 986.402 484.4 986.535 485.067C986.802 485.733 978.268 501.333 967.602 519.733L948.268 553.2L910.935 553.333H873.602L854.402 520.133L835.335 486.8L847.735 465.733C854.402 454.133 863.202 439.067 867.202 432.267L874.402 420H912.002H949.735L968.002 452ZM1206.27 452.8C1216.67 470.8 1224.8 486.267 1224.53 487.067C1224.13 488 1215.47 503.067 1205.2 520.667L1186.53 552.667H1148.27H1110L1091.47 520.667C1081.2 503.067 1073.07 487.733 1073.2 486.533C1073.47 485.333 1082 469.867 1092.27 452.267L1110.93 420H1149.07H1187.33L1206.27 452.8ZM253.335 447.333C261.335 461.2 269.868 476.267 272.268 480.667L276.801 488.667L257.735 521.333L238.801 554L200.668 554.4L162.535 554.667L146.135 526.4C137.201 510.8 128.535 495.6 126.801 492.667L123.735 487.333L140.001 459.333C148.935 443.867 157.601 429.067 159.201 426.267L162.268 421.333L200.535 421.6L238.801 422L253.335 447.333ZM1068.4 489.733C1070.27 492.133 1105.33 554.4 1105.33 555.333C1105.33 556.933 1069.33 618.533 1066.93 621.2C1065.47 622.667 1058.67 622.8 1028.4 622L991.735 620.933L972.935 588.4L954.268 555.867L971.068 526.933C980.268 511.067 989.335 495.733 991.202 492.8L994.535 487.6L1031.47 488.667C1051.73 489.2 1068.4 489.733 1068.4 489.733ZM1306.53 490.533C1308.93 492.8 1343.73 555.067 1343.33 556.533C1343.07 557.467 1334.53 572.667 1324.27 590.4L1305.6 622.667L1267.07 622.267L1228.53 622L1209.47 588.667L1190.4 555.333L1192.93 551.333C1194.27 549.2 1202.67 534.667 1211.6 519.333C1220.53 503.867 1228.4 490.667 1229.07 489.867C1230.27 488.4 1304.8 488.933 1306.53 490.533ZM106.535 490.133L120.535 491.067L138.935 523.2C149.068 540.933 157.335 555.867 157.335 556.667C157.335 557.333 148.668 572.933 138.135 591.067L118.935 624.133L81.2015 623.867L43.4681 623.733L40.2681 618.8C38.6681 616.133 29.8681 601.2 20.9348 585.467C6.66814 560.533 4.80147 556.533 6.13481 553.867C7.73481 550.133 40.8015 493.333 42.6681 490.933C44.1348 489.2 81.6015 488.667 106.535 490.133ZM596.135 494.267C598.002 497.067 606.935 512.4 616.002 528.4L632.535 557.467L613.202 590.667L593.735 624H582.402C576.135 624 558.802 623.6 544.135 623.067L517.201 622.267L498.401 589.2L479.468 556L491.735 535.067C498.401 523.467 507.201 508.4 511.201 501.6L518.401 489.333H555.602H592.935L596.135 494.267ZM850.135 522.133C860.535 540.267 868.935 555.6 868.935 556.267C868.935 556.933 860.402 572.267 850.002 590.133L831.068 622.667L792.935 622.4L754.935 622L737.335 591.333C727.602 574.4 719.068 559.333 718.135 557.867C716.802 555.333 718.935 551.067 735.735 522.133L754.935 489.333H793.202H831.335L850.135 522.133ZM1563.47 522.667L1582.4 556L1563.2 589.067L1544 622L1505.47 622.267L1466.93 622.667L1447.87 589.333C1430.93 559.467 1429.07 555.6 1430.4 552.933C1433.47 547.333 1465.33 492.667 1466.67 490.933C1467.6 489.733 1477.2 489.333 1506.13 489.333H1544.4L1563.47 522.667ZM376.001 523.067C386.001 540.8 394.268 556 394.268 556.667C394.268 557.467 385.601 572.667 375.068 590.667L356.001 623.333L318.535 623.733L281.201 624L262.401 591.2C252.001 573.2 243.601 557.733 243.601 556.933C243.601 556.133 252.135 540.933 262.401 523.067L281.335 490.667H319.468L357.601 490.8L376.001 523.067ZM1205.73 591.467L1225.07 625.067L1205.33 658.667L1185.73 692.4L1177.07 691.467C1172.27 691.067 1155.2 690.667 1139.33 690.667H1110.53L1091.47 657.6C1081.07 639.467 1072.53 624 1072.53 623.333C1072.53 622.533 1078.53 611.733 1085.87 599.333C1093.07 586.8 1101.6 572.267 1104.8 566.933L1110.4 557.333L1148.4 557.6L1186.4 558L1205.73 591.467ZM222.401 559.6L239.201 560.4L257.602 592.4C267.735 610 276.001 625.067 276.001 625.867C276.001 627.6 240.135 689.2 237.868 691.6C236.668 692.8 226.935 692.933 198.668 692.4L160.935 691.6L142.268 659.067C131.868 641.067 123.601 626 123.868 625.467C124.135 624.933 132.935 609.733 143.468 591.6L162.668 558.667H184.135C196.001 558.667 213.201 559.067 222.401 559.6ZM493.868 590.667C503.868 607.867 512.268 623.067 512.535 624.267C512.935 625.6 505.468 639.867 494.135 659.333L475.068 692H436.935L398.935 691.867L380.401 659.333C368.801 638.8 362.268 625.867 362.801 624.533C363.468 622.667 394.535 568.8 399.068 561.6L401.068 558.667L438.401 558.933L475.735 559.333L493.868 590.667ZM731.468 592L750.535 625.467L730.668 659.467L710.935 693.6L701.068 692.8C695.602 692.4 678.802 692 663.735 692H636.268L617.602 659.2C607.335 641.067 599.068 625.733 599.335 624.933C599.602 624.267 608.268 608.933 618.668 591.2L637.602 558.667H674.935H712.402L731.468 592ZM966.002 588C975.068 603.733 983.735 618.933 985.202 621.6L988.002 626.4L968.935 659.2L950.002 692H911.735H873.468L854.402 658.667C844.002 640.267 835.602 624.8 835.868 624.133C836.135 623.467 844.668 608.533 854.935 590.8L873.602 558.667L911.468 558.933L949.468 559.333L966.002 588ZM1443.73 591.333C1453.87 608.933 1462.27 624.133 1462.27 625.067C1462.27 626 1453.73 641.333 1443.33 659.333L1424.27 692H1386.27H1348.27L1330.27 660.533C1320.4 643.2 1311.73 627.867 1311.07 626.533C1310.13 624.667 1314.13 616.8 1328.93 591.333L1348 558.667L1386.67 558.933L1425.2 559.333L1443.73 591.333ZM1682 591.6C1692.4 609.867 1700.93 625.2 1700.93 625.733C1700.93 626.4 1692.4 641.467 1682 659.467L1662.93 692H1624.27L1585.6 691.867L1566.67 658.667L1547.87 625.333L1567.2 592L1586.67 558.667H1624.93H1663.07L1682 591.6ZM850.135 660.667C860.535 678.533 868.935 693.733 868.935 694.267C868.935 694.8 860.268 710 849.868 728L830.802 760.667L793.335 761.067L755.868 761.333L737.068 728.667C726.668 710.8 718.268 695.467 718.268 694.667C718.268 693.2 726.802 678.133 747.602 642.667L756.668 627.333L794.002 627.733L831.468 628.133L850.135 660.667ZM375.868 661.867L395.201 695.6L376.135 728.133L357.201 760.667L318.801 760.933L280.268 761.333L261.335 728.133L242.268 694.933L261.868 661.467L281.335 628H318.935H356.535L375.868 661.867ZM609.468 654.667C617.735 668.933 626.268 684 628.535 688L632.802 695.333L613.735 728L594.802 760.667H556.268H517.735L498.668 727.467C482.135 698.533 479.868 694 481.201 691.467C484.135 685.867 516.001 631.333 517.335 629.6C518.268 628.4 527.202 628 556.668 628.267L594.668 628.667L609.468 654.667ZM1087.2 661.333L1106.13 694.667L1086.67 728L1067.33 761.333H1029.73H992.268L973.202 727.867L954.135 694.4L964.402 676.933C970.002 667.2 978.802 652.267 983.868 643.6L993.068 628H1030.67L1068.27 628.133L1087.2 661.333ZM1324.93 660.933C1335.2 679.067 1343.47 694.533 1343.33 695.333C1343.07 696.267 1334.53 711.467 1324.27 729.067L1305.6 761.333H1267.47H1229.33L1210 727.6L1190.8 693.867L1205.87 667.867C1214.27 653.6 1222.8 638.8 1224.93 634.933L1228.93 628H1267.47H1306L1324.93 660.933ZM1563.2 661.867L1582.13 695.067L1563.07 727.867L1543.87 760.667L1505.47 760.933L1466.93 761.333L1448.27 728.533C1438 710.533 1429.6 695.2 1429.6 694.267C1429.6 693.333 1438 678.133 1448.27 660.4L1466.93 628L1505.47 628.4L1544.13 628.667L1563.2 661.867ZM950.535 698.533C952.268 700.133 987.602 762.667 987.602 764.133C987.602 764.933 979.068 780.267 968.668 798.133L949.735 830.667H912.135H874.535L854.935 796.533L835.468 762.533L853.735 730.933C863.868 713.6 872.535 698.667 873.068 697.867C874.268 696.4 948.802 696.933 950.535 698.533ZM1204.53 727.333C1214.27 744.133 1222.8 759.2 1223.6 760.667C1224.8 763.067 1222.27 768.133 1205.47 797.2L1185.87 830.933L1148.53 830.4L1111.33 830L1092.27 796.667C1075.33 767.333 1073.33 763.2 1074.67 760.667C1075.6 759.067 1084.4 743.867 1094.27 726.8L1112.27 695.733L1149.6 696.267L1186.93 696.667L1204.53 727.333ZM257.202 730.4C267.335 748.267 275.601 763.6 275.335 764.533C275.068 765.467 266.535 780.8 256.268 798.4L237.601 830.667L199.068 830.267L160.535 830L141.468 796.667C124.401 766.933 122.535 763.067 124.135 760.667C125.068 759.2 133.735 744.4 143.468 727.6L161.201 697.333L199.868 697.6L238.668 698L257.202 730.4ZM492.268 726.933C501.602 743.333 510.268 758.533 511.602 760.667L514.135 764.667L495.068 797.333L476.001 830L437.468 830.267L398.935 830.667L380.001 797.333L360.935 764.133L380.401 730.8L399.868 697.333H437.602H475.335L492.268 726.933ZM702.935 698.133L713.602 699.067L732.668 732.4L751.602 765.733L732.535 798.533L713.468 831.333L686.802 831.733C672.268 831.867 654.935 831.6 648.268 831.067L636.402 830L617.468 797.067L598.668 764.133L618.135 730.8L637.468 697.333H664.935C680.002 697.333 697.068 697.733 702.935 698.133ZM1441.07 725.6C1450 741.2 1458.67 756.4 1460.27 759.333L1463.33 764.667L1444 797.6L1424.8 830.667H1386.4H1348.13L1329.07 797.333C1318.67 778.933 1310.27 763.467 1310.53 762.8C1310.8 762.133 1319.33 747.2 1329.6 729.467L1348.27 697.333H1386.53H1424.67L1441.07 725.6ZM1324.67 799.333C1341.2 828 1343.6 832.933 1342.4 835.6C1340.13 840.667 1307.33 896.533 1305.6 898.533C1304.27 900 1297.2 900.133 1266.67 899.333L1229.47 898.267L1211.47 866.933C1201.73 849.733 1193.07 834.667 1192.53 833.333C1191.6 831.6 1196.13 822.933 1210.53 798.133L1229.6 765.333L1267.6 765.733L1305.6 766L1324.67 799.333ZM376.535 800.667C393.735 830.667 395.335 834.133 393.735 836.667C392.801 838.133 384.135 852.933 374.401 869.6L356.668 900H318.268H279.868L261.068 867.2C250.668 849.067 242.268 833.867 242.268 833.2C242.268 832.533 250.801 817.2 261.335 799.333L280.268 766.667L318.801 767.067L357.468 767.333L376.535 800.667ZM614.002 800.133L633.068 833.6L613.868 866.4L594.668 899.333L556.668 899.733L518.535 900L499.602 867.067C488.535 847.733 481.068 833.067 481.335 831.733C481.735 830.533 490.268 815.333 500.268 798L518.535 766.667H556.802L594.935 766.8L614.002 800.133ZM850.135 799.467C860.535 817.6 868.935 832.933 868.935 833.867C868.935 834.667 860.402 849.867 849.868 867.733L830.935 900.133L793.602 900C773.068 900 755.868 899.467 755.335 898.933C754.935 898.4 746.268 883.733 736.268 866.267C725.335 847.2 718.402 833.733 718.802 832.4C719.602 830.667 750.668 776.667 755.068 769.6C756.935 766.667 757.068 766.667 794.135 766.667H831.335L850.135 799.467ZM1087.87 800.667L1107.33 834.667L1088.4 867.067L1069.47 899.333H1030.93H992.402L973.335 866.133C962.935 847.867 954.535 832.533 954.802 832.133C955.468 830.933 973.335 800.267 983.602 782.667L993.068 766.667H1030.67H1068.4L1087.87 800.667ZM495.335 870.133L514.401 903.733L495.335 936.533L476.268 969.333L437.735 968.933L399.201 968.667L380.135 935.6L361.201 902.4L364.801 896.267C366.801 892.8 375.468 877.867 384.135 862.933L399.868 836L438.001 836.267L476.135 836.667L495.335 870.133ZM732.668 869.333L751.602 902.8L732.402 935.733L713.202 968.667L675.335 969.067L637.335 969.333L618.802 937.067C608.668 919.333 600.135 904 599.868 903.067C599.602 902 607.868 886.533 618.402 868.667L637.335 836H675.468H713.602L732.668 869.333ZM969.602 868.933C979.868 887.067 988.135 902.4 987.868 903.2C987.602 904 978.935 919.2 968.535 936.933L949.735 969.333H912.135H874.535L855.602 936.4C845.335 918.267 837.202 902.667 837.602 901.6C838.268 899.867 869.602 845.6 873.735 838.933C875.602 836 875.735 836 913.335 836L950.935 836.133L969.602 868.933ZM1206.67 870L1226 903.867L1207.07 936.267L1188.27 968.667H1149.73H1111.33L1092.8 936.667C1082.67 919.067 1074.4 903.867 1074.27 902.933C1074.27 901.867 1082.8 886.4 1093.2 868.533L1112.13 836H1149.73H1187.2L1206.67 870ZM376.535 938.667L395.601 972L376.135 1005.33L356.668 1038.67H318.401H280.135L261.068 1005.2C246.401 979.6 242.268 971.2 243.068 969.467C243.735 968.133 252.401 953.2 262.268 936.133L280.268 905.333H318.935H357.601L376.535 938.667ZM613.735 938.8L632.535 971.467L613.068 1005.07L593.602 1038.67L555.735 1038.27L517.868 1038L499.335 1005.6C489.201 987.733 480.935 972.4 481.201 971.467C481.468 970.533 490.001 955.333 500.268 937.6L518.935 905.333L556.935 905.733L594.935 906L613.735 938.8ZM851.202 939.2L870.135 972.4L866.935 977.867C865.202 980.933 856.535 995.6 847.868 1010.67L831.868 1038H793.468H755.068L736.135 1004.93L717.202 971.867L736.668 938.533L756.002 905.333L794.135 905.6L832.135 906L851.202 939.2ZM1088.27 938.133C1098.53 956.267 1106.8 971.6 1106.53 972.4C1106.27 973.067 1097.6 988.267 1087.33 1006.13L1068.4 1038.67H1030.8H993.202L975.468 1007.6C965.735 990.667 956.935 975.467 956.002 974C954.535 971.467 956.002 968.267 971.735 941.333C981.335 924.8 990.002 910 991.068 908.267C992.935 905.333 993.068 905.333 1031.33 905.333H1069.6L1088.27 938.133ZM1326.4 938C1336.53 955.6 1344.8 970.667 1344.8 971.333C1344.93 972.133 1336.4 987.467 1325.87 1005.33L1306.93 1038H1268.4H1229.87L1211.47 1006C1201.33 988.4 1193.07 973.2 1193.07 972.267C1192.93 971.333 1201.47 955.867 1211.87 937.867L1230.8 905.333L1269.33 905.6L1308 906L1326.4 938ZM1206.8 1007.07C1217.07 1024.8 1225.33 1040 1225.33 1040.67C1225.33 1041.47 1216.8 1056.93 1206.27 1075.07L1187.07 1108H1149.07H1110.93L1091.87 1074.67C1074.8 1044.67 1072.93 1041.07 1074.4 1038.4C1078.53 1030.53 1109.47 977.733 1111.07 976C1112.53 974.267 1118.27 974 1150.53 974.4L1188.27 974.8L1206.8 1007.07ZM495.468 1008.13L514.668 1041.6L512.135 1046C510.801 1048.27 502.135 1063.2 492.935 1079.07L476.268 1107.87H437.602L398.935 1108L379.868 1074.67L360.801 1041.47L373.068 1020.4C379.735 1008.8 388.535 993.733 392.535 986.933L399.735 974.667H438.001H476.268L495.468 1008.13ZM732.268 1007.47C742.535 1025.47 750.935 1040.53 750.802 1040.93C750.802 1041.33 742.135 1056.53 731.468 1074.8L712.268 1108L674.802 1107.87C641.202 1107.87 637.068 1107.6 635.335 1105.6C633.335 1103.2 599.868 1045.07 599.335 1042.8C599.068 1042.13 607.602 1026.53 618.268 1008.13L637.602 974.667H675.602H713.602L732.268 1007.47ZM969.602 1007.73C979.868 1025.73 988.268 1041.2 988.268 1042.13C988.268 1042.93 979.868 1058.13 969.602 1075.87L950.935 1108L912.402 1107.73L873.868 1107.33L854.935 1074.13L835.868 1040.93L844.135 1026.8C848.668 1019.07 857.468 1004.13 863.468 993.6L874.535 974.667L912.668 974.8H950.935L969.602 1007.73ZM1445.73 1008.4L1464.53 1041.47L1445.2 1074.67L1425.87 1108H1387.47H1349.2L1330.4 1075.2C1320 1057.07 1311.6 1041.73 1311.6 1041.07C1311.6 1040.4 1320.13 1025.07 1330.53 1007.2L1349.47 974.667L1388.13 974.933L1426.8 975.333L1445.73 1008.4ZM815.602 1043.47L832.402 1044.4L851.335 1077.33L870.268 1110.4L850.802 1143.87L831.335 1177.33L808.535 1177.2C795.868 1177.07 778.402 1176.67 769.735 1176.13L753.735 1175.33L735.335 1143.33C725.335 1125.73 716.935 1110.93 716.935 1110.27C716.935 1109.73 725.735 1094.27 736.402 1076L755.868 1042.67H777.335C789.202 1042.67 806.402 1043.07 815.602 1043.47ZM1285.6 1044H1307.07L1326.13 1077.33L1345.2 1110.67L1325.87 1143.73L1306.67 1176.67L1268.53 1177.07L1230.27 1177.33L1227.2 1172.4C1218.8 1159.2 1191.6 1110.4 1192 1109.6C1192.27 1109.07 1201.2 1093.73 1211.73 1075.47L1230.93 1042.27L1247.6 1043.2C1256.8 1043.6 1273.87 1044 1285.6 1044Z" fill="rgba(0,0,0,0.2)"/>
</svg>
