<svg width="21" height="21" viewBox="0 0 21 21" fill="none" xmlns="http://www.w3.org/2000/svg">
<path d="M8.83333 0.5C4.24083 0.5 0.5 4.24083 0.5 8.83333C0.5 13.4258 4.24083 17.1667 8.83333 17.1667C10.8304 17.1667 12.6645 16.4575 14.1019 15.2803L19.0775 20.2559C19.1543 20.3358 19.2462 20.3997 19.348 20.4437C19.4498 20.4877 19.5593 20.5109 19.6702 20.512C19.781 20.5132 19.891 20.4922 19.9937 20.4502C20.0963 20.4083 20.1896 20.3464 20.268 20.268C20.3464 20.1896 20.4083 20.0963 20.4502 19.9937C20.4922 19.891 20.5132 19.781 20.512 19.6702C20.5109 19.5593 20.4877 19.4498 20.4437 19.348C20.3997 19.2462 20.3358 19.1543 20.2559 19.0775L15.2803 14.1019C16.4575 12.6645 17.1667 10.8304 17.1667 8.83333C17.1667 4.24083 13.4258 0.5 8.83333 0.5ZM8.83333 2.16667C12.5251 2.16667 15.5 5.14156 15.5 8.83333C15.5 12.5251 12.5251 15.5 8.83333 15.5C5.14156 15.5 2.16667 12.5251 2.16667 8.83333C2.16667 5.14156 5.14156 2.16667 8.83333 2.16667Z" fill="black"/>
</svg>
