<svg width="19" height="19" viewBox="0 0 19 19" fill="none" xmlns="http://www.w3.org/2000/svg">
<path fill-rule="evenodd" clip-rule="evenodd" d="M5.33333 6.375C5.33333 4.07381 7.19881 2.20833 9.5 2.20833C11.8011 2.20833 13.6667 4.07381 13.6667 6.375C13.6667 8.67615 11.8011 10.5417 9.5 10.5417C7.19881 10.5417 5.33333 8.67615 5.33333 6.375ZM13.4836 11.1911C14.868 10.0448 15.75 8.31292 15.75 6.375C15.75 2.92322 12.9518 0.125 9.5 0.125C6.04822 0.125 3.25 2.92322 3.25 6.375C3.25 8.31292 4.13196 10.0448 5.51638 11.1911C2.19189 12.3603 0.125 14.966 0.125 17.8333C0.125 18.4086 0.591375 18.875 1.16667 18.875C1.74196 18.875 2.20833 18.4086 2.20833 17.8333C2.20833 15.4694 4.66177 12.625 9.5 12.625C14.3382 12.625 16.7917 15.4694 16.7917 17.8333C16.7917 18.4086 17.258 18.875 17.8333 18.875C18.4086 18.875 18.875 18.4086 18.875 17.8333C18.875 14.966 16.8081 12.3603 13.4836 11.1911Z" fill="black"/>
</svg>
